<svg xmlns="http://www.w3.org/2000/svg" width="49" height="42" viewBox="0 0 49 42"><g><g><path fill="#c4a2fc" d="M45.245 17.942a.78.78 0 0 1-1.56 0v-3.12a.78.78 0 0 0-.78-.78h-3.12a.78.78 0 1 1 0-1.56h3.12a2.34 2.34 0 0 1 2.34 2.34zm.78-8.58H17.944a2.34 2.34 0 0 0-2.34 2.34v20.28a3.9 3.9 0 0 0 4.282 3.9c2.106-.202 3.518-2.043 3.518-4.586v-5.374a2.473 2.473 0 0 1 2.45-2.52 2.34 2.34 0 0 1 2.23 2.34v12.48a3.9 3.9 0 0 0 3.9 3.901c2.098 0 3.9-1.654 3.9-4.797v-8.284a2.473 2.473 0 0 1 2.45-2.52 2.34 2.34 0 0 1 2.23 2.34v4.68a3.9 3.9 0 0 0 4.283 3.9 4.002 4.002 0 0 0 3.518-4.032V11.702a2.34 2.34 0 0 0-2.34-2.34z"/></g><g><path fill="#151a6a" d="M37.07 5.297a67.083 67.083 0 0 1-20.827 21.288 5.304 5.304 0 0 0-1.365-2.45 5.304 5.304 0 0 0-2.45-1.365 67.083 67.083 0 0 1 21.28-20.835 2.434 2.434 0 0 1 3.362 3.362zm-24.774 28.55c-2.285 2.285-8.3 3.214-10.632 3.494.28-2.34 1.21-8.346 3.495-10.632a8.292 8.292 0 0 1 5.632-2.605 4.11 4.11 0 0 1 2.964 1.116c.226.42-.258 2.722-2.044 4.5a4.782 4.782 0 0 1-1.568.92.78.78 0 1 0 .585 1.444 6.24 6.24 0 0 0 2.114-1.256 9.36 9.36 0 0 0 2.06-3.12 7.988 7.988 0 0 1-2.606 6.139zM37.834 1.17A3.994 3.994 0 0 0 32.89.609 68.472 68.472 0 0 0 10.72 22.497a.25.25 0 0 0 0 .07 9.836 9.836 0 0 0-6.661 3.035C.783 28.862.003 37.778.003 38.16a.78.78 0 0 0 .842.843c.382 0 9.306-.78 12.559-4.056a9.852 9.852 0 0 0 3.034-6.63h.07a68.472 68.472 0 0 0 21.888-22.2 4.002 4.002 0 0 0-.562-4.946z"/></g></g></svg>