<svg xmlns="http://www.w3.org/2000/svg" width="31" height="28" viewBox="0 0 31 28"><g><g><path fill="#4c7fbd" d="M24.089 17.777c-2.509-4.35-4.388-7.61-5.647-9.77-1.136.939-2.283 3.72-.676 6.491 1.569 2.725 3.937 6.812 7.084 12.27.536.921 1.7 1.231 2.621.705.921-.535 1.231-1.7.705-2.621l-1.87-3.241h2.772a1.913 1.913 0 0 0 1.916-1.917 1.913 1.913 0 0 0-1.916-1.917zM4.425 22.484l-1.372 2.368a1.919 1.919 0 1 0 3.326 1.917l1.842-3.195c-.996-1.202-2.255-1.569-3.796-1.09zM14.778 1.618a1.921 1.921 0 0 0-2.62-.705c-.922.535-1.232 1.7-.706 2.621l1.955 3.392-6.258 10.842H2.264a1.913 1.913 0 0 0-1.917 1.917c0 1.061.855 1.916 1.917 1.916h17.428c.836-1.569-.244-3.833-2.17-3.833h-5.947l8.22-14.234a1.919 1.919 0 1 0-3.326-1.917l-.854 1.476z"/></g></g></svg>