<svg xmlns="http://www.w3.org/2000/svg" width="49" height="49" viewBox="0 0 49 49"><g><g><path fill="#fce7a2" d="M42.125 15.602h5.742c-.227-.292-5.479-5.516-5.742-5.726z"/></g><g><path fill="#fce7a2" d="M42.905 23.403H24.183a.78.78 0 0 1 0-1.56h18.722a.78.78 0 0 1 0 1.56zm0 6.24H24.183a.78.78 0 0 1 0-1.56h18.722a.78.78 0 0 1 0 1.56zm0 6.241H24.183a.78.78 0 0 1 0-1.56h18.722a.78.78 0 0 1 0 1.56zm0 6.241H24.183a.78.78 0 0 1 0-1.56h18.722a.78.78 0 0 1 0 1.56zM24.183 15.602h13.261a.78.78 0 0 1 0 1.56H24.183a.78.78 0 0 1 0-1.56zm17.162 1.56a.78.78 0 0 1-.78-.78v-7.02H21.062a2.34 2.34 0 0 0-2.34 2.34v34.323a2.34 2.34 0 0 0 2.34 2.34h24.963a2.34 2.34 0 0 0 2.34-2.34V17.162z"/></g><g><path fill="#dd9100" d="M35.4 28.226a.803.803 0 0 1-.509.495 49.452 49.452 0 0 1-30.795 0 .805.805 0 0 1-.509-.495 35.611 35.611 0 0 1-.6-21.784 45.628 45.628 0 0 0 9.87 12.013 39.968 39.968 0 0 0-6.865 6.787.78.78 0 0 0 1.214.982 37.848 37.848 0 0 1 6.922-6.764c1.118.838 2.29 1.601 3.51 2.283a3.891 3.891 0 0 0 3.729.058 25.692 25.692 0 0 0 3.51-2.255 36.423 36.423 0 0 1 6.98 6.68.78.78 0 0 0 1.21-.985 38.234 38.234 0 0 0-6.926-6.71c3.432-2.902 6.686-6.922 9.846-12.156a35.612 35.612 0 0 1-.587 21.851zM4.096 4.02a50.193 50.193 0 0 1 15.398-2.46c5.229.013 10.424.843 15.397 2.46.19.069.348.209.44.39-4.653 8.002-9.463 13.246-14.697 16.01a2.34 2.34 0 0 1-2.24-.04C12.736 17.221 8.039 12.15 3.632 4.446c.09-.2.257-.355.464-.427zm32.78-.01a2.364 2.364 0 0 0-1.508-1.475 50.98 50.98 0 0 0-31.75 0A2.367 2.367 0 0 0 2.113 4.01a37.24 37.24 0 0 0 0 24.722c.243.701.801 1.247 1.507 1.476a51.75 51.75 0 0 0 15.875 2.534 51.758 51.758 0 0 0 15.874-2.534 2.364 2.364 0 0 0 1.508-1.476 37.23 37.23 0 0 0 0-24.722z"/></g></g></svg>