<svg xmlns="http://www.w3.org/2000/svg" width="28" height="29" viewBox="0 0 28 29"><g><g><g><path fill="#4285f4" d="M27.956 14.726c0-1.148-.093-1.985-.294-2.854H14.556v5.18h7.693c-.155 1.288-.993 3.226-2.854 4.53l-.026.173 4.144 3.21.287.028c2.636-2.435 4.156-6.017 4.156-10.267"/></g><g><path fill="#34a853" d="M14.556 28.374c3.769 0 6.933-1.24 9.244-3.38l-4.405-3.413c-1.179.822-2.76 1.396-4.839 1.396-3.69 0-6.824-2.435-7.94-5.8l-.164.013-4.309 3.335-.056.157c2.295 4.56 7.01 7.692 12.47 7.692"/></g><g><path fill="#fbbc05" d="M6.615 17.177a8.593 8.593 0 0 1-.465-2.761c0-.962.17-1.892.45-2.76l-.008-.186L2.23 8.082l-.142.068a13.971 13.971 0 0 0-1.49 6.266c0 2.249.544 4.374 1.49 6.266l4.528-3.505"/></g><g><path fill="#eb4335" d="M14.556 5.855c2.621 0 4.39 1.132 5.398 2.078l3.939-3.846c-2.42-2.25-5.568-3.63-9.337-3.63C9.097.458 4.382 3.59 2.086 8.15L6.6 11.655c1.132-3.365 4.265-5.8 7.956-5.8"/></g></g></g></svg>