<svg xmlns="http://www.w3.org/2000/svg" width="19" height="19" viewBox="0 0 19 19"><g><g><path fill="#fff" d="M16.837 1.613a5.522 5.522 0 0 0-7.8 0L6.598 4.05a5.513 5.513 0 0 0 .745 8.424.583.583 0 0 0 .747-.062l.764-.764c.303-.303.439-.698.424-1.082a.582.582 0 0 0-.252-.457 2.612 2.612 0 0 1-.375-4.006l2.439-2.438a2.616 2.616 0 0 1 3.713.018c1.006 1.027.975 2.683-.042 3.7l-.475.475a.584.584 0 0 0-.138.603c.213.623.329 1.27.352 1.913a.58.58 0 0 0 .99.384l1.347-1.346a5.521 5.521 0 0 0 0-7.8zm-5.114 5.114a5.533 5.533 0 0 0-.745-.624.583.583 0 0 0-.747.063l-.764.764a1.445 1.445 0 0 0-.424 1.082c.007.183.1.353.252.457a2.612 2.612 0 0 1 .375 4.006l-2.438 2.438a2.616 2.616 0 0 1-3.713-.018c-1.007-1.027-.975-2.683.042-3.7l.475-.475a.584.584 0 0 0 .137-.603 6.686 6.686 0 0 1-.352-1.913.58.58 0 0 0-.99-.385L1.484 9.166a5.521 5.521 0 0 0 0 7.8 5.522 5.522 0 0 0 7.8 0l2.439-2.439.013-.013a5.513 5.513 0 0 0-.013-7.787z"/></g></g></svg>