<svg xmlns="http://www.w3.org/2000/svg" width="48" height="48" viewBox="0 0 48 48"><g><g><path fill="#bafca2" d="M37.953 32.473l-10.288 5.611a.774.774 0 0 1-1.145-.68V26.181a.774.774 0 0 1 1.145-.68l10.288 5.613a.774.774 0 0 1 0 1.36zm-6.209-16.992c-8.98 0-16.259 7.28-16.259 16.26S22.765 48 31.745 48s16.259-7.28 16.259-16.26c-.01-8.975-7.284-16.249-16.26-16.259z"/></g><g><path fill="#156a15" d="M25.55 28.619a.774.774 0 0 1-1.181.658l-13.53-8.376V9.395l13.55-7.743a.774.774 0 0 1 1.161.667zM1.55 11.145c0-.402.308-.738.71-.774l7.032-.584V20.49l-7.033-.586a.779.779 0 0 1-.71-.77zM23.624.305L9.833 8.189l-7.7.642A2.335 2.335 0 0 0 0 11.145v7.99a2.335 2.335 0 0 0 2.13 2.315l7.686.641 13.738 8.502a2.323 2.323 0 0 0 3.545-1.974v-26.3A2.323 2.323 0 0 0 23.624.306z"/></g></g></svg>