<svg xmlns="http://www.w3.org/2000/svg" width="48" height="49" viewBox="0 0 48 49"><g><g><path fill="#eba2fc" d="M35.413 21.062a2.046 2.046 0 0 0 1.138 1.842 3.62 3.62 0 0 1 2.01 3.251v.902a2.063 2.063 0 0 0 2.06 2.06h7.074a16.558 16.558 0 0 0-12.282-12.885z"/></g><g><path fill="#eba2fc" d="M40.62 30.691a3.637 3.637 0 0 1-3.633-3.634v-.902a2.046 2.046 0 0 0-1.14-1.838 3.62 3.62 0 0 1-2.008-3.255v-5.134A16.402 16.402 0 0 0 15.14 34.626h3.746a2.36 2.36 0 0 0 2.36-2.361 3.94 3.94 0 0 1 3.935-3.935 5.021 5.021 0 0 1 4.307 2.499 3.796 3.796 0 0 0 2.636 1.796 3.922 3.922 0 0 1 3.288 3.88v.482a5.516 5.516 0 0 1-5.509 5.508 3.953 3.953 0 0 0-2.36.787l-4.35 3.26a16.495 16.495 0 0 0 24.731-15.851z"/></g><g><path fill="#eba2fc" d="M29.904 40.921a3.94 3.94 0 0 0 3.935-3.934v-.481a2.354 2.354 0 0 0-1.973-2.329 5.37 5.37 0 0 1-3.727-2.542 3.437 3.437 0 0 0-2.957-1.73 2.36 2.36 0 0 0-2.36 2.36 3.94 3.94 0 0 1-3.935 3.935h-3.442a16.545 16.545 0 0 0 6.349 9.427l4.805-3.604a5.535 5.535 0 0 1 3.305-1.102z"/></g><g><path fill="#6a1563" d="M36.987 37.774H2.36a.787.787 0 0 1-.787-.787V7.869l36.2.058v29.06a.787.787 0 0 1-.787.787zM2.36 1.574h34.626c.434 0 .787.352.787.787v3.994l-36.2-.06V2.362c0-.435.352-.787.787-.787zM2.36 0A2.36 2.36 0 0 0 0 2.36v34.627a2.36 2.36 0 0 0 2.36 2.36h34.627a2.36 2.36 0 0 0 2.36-2.36V2.36A2.36 2.36 0 0 0 36.987 0z"/></g><g><path fill="#6a1563" d="M3.935 4.722h1.574a.787.787 0 0 0 0-1.574H3.935a.787.787 0 0 0 0 1.574z"/></g><g><path fill="#6a1563" d="M9.443 4.722h1.574a.787.787 0 0 0 0-1.574H9.443a.787.787 0 0 0 0 1.574z"/></g><g><path fill="#6a1563" d="M14.952 4.722h1.574a.787.787 0 0 0 0-1.574h-1.574a.787.787 0 0 0 0 1.574z"/></g><g><path fill="#6a1563" d="M18.118 25.99l-1.315-1.314L18 23.582c.363.442.769.848 1.21 1.21zm-7.994 8.755c-1.373 1.502-3.553-.723-2.075-2.075l7.59-6.931 1.417 1.416zm14.57-23.728a7.083 7.083 0 1 1-7.082 7.083 7.09 7.09 0 0 1 7.082-7.083zm8.657 7.083a8.656 8.656 0 1 0-16.24 4.166L6.988 31.508a3.042 3.042 0 1 0 4.298 4.298l9.242-10.122A8.65 8.65 0 0 0 33.351 18.1z"/></g><g><path fill="#6a1563" d="M24.694 14.165a3.935 3.935 0 1 1 0 7.87 3.935 3.935 0 0 1 0-7.87zm0 9.443a5.509 5.509 0 1 0-5.508-5.508 5.516 5.516 0 0 0 5.508 5.508z"/></g><g><path fill="#6a1563" d="M4.722 15.739h8.656a.787.787 0 0 0 0-1.574H4.722a.787.787 0 0 0 0 1.574z"/></g><g><path fill="#6a1563" d="M4.722 19.674h8.656a.787.787 0 0 0 0-1.574H4.722a.787.787 0 0 0 0 1.574z"/></g><g><path fill="#6a1563" d="M10.23 22.822a.787.787 0 0 0-.787-.787H4.722a.787.787 0 0 0 0 1.573h4.721a.787.787 0 0 0 .787-.786z"/></g><g><path fill="#6a1563" d="M34.626 29.904h-8.657a.787.787 0 0 0 0 1.574h8.657a.787.787 0 0 0 0-1.574z"/></g><g><path fill="#6a1563" d="M34.626 25.97h-3.148a.787.787 0 0 0 0 1.573h3.148a.787.787 0 0 0 0-1.574z"/></g></g></svg>