<svg xmlns="http://www.w3.org/2000/svg" width="31" height="31" viewBox="0 0 31 31"><g><g><path fill="none" stroke="#fff" stroke-linecap="round" stroke-linejoin="round" stroke-miterlimit="20" stroke-width="2.5" d="M19.182 15.5a3.682 3.682 0 1 1-7.364 0 3.682 3.682 0 0 1 7.364 0z"/></g><g><path fill="none" stroke="#fff" stroke-linecap="round" stroke-linejoin="round" stroke-miterlimit="20" stroke-width="2.5" d="M24.582 19.182a2.025 2.025 0 0 0 .405 2.233l.073.074a2.455 2.455 0 0 1-1.736 4.193 2.455 2.455 0 0 1-1.737-.72l-.073-.073a2.025 2.025 0 0 0-2.234-.405 2.025 2.025 0 0 0-1.227 1.853v.208a2.455 2.455 0 0 1-4.91 0v-.11a2.025 2.025 0 0 0-1.325-1.853 2.025 2.025 0 0 0-2.233.405l-.074.073a2.455 2.455 0 0 1-4.193-1.736c0-.652.259-1.276.72-1.737l.073-.073c.58-.592.74-1.477.405-2.234a2.025 2.025 0 0 0-1.853-1.227h-.208a2.455 2.455 0 0 1 0-4.91h.11a2.025 2.025 0 0 0 1.853-1.325 2.025 2.025 0 0 0-.405-2.233L5.94 9.51a2.455 2.455 0 0 1 1.736-4.193c.652 0 1.276.259 1.737.72l.073.073c.592.58 1.477.74 2.234.405h.098a2.025 2.025 0 0 0 1.227-1.853v-.208a2.455 2.455 0 0 1 4.91 0v.11a2.025 2.025 0 0 0 1.227 1.853 2.025 2.025 0 0 0 2.233-.405l.074-.073a2.455 2.455 0 0 1 4.193 1.736c0 .652-.259 1.276-.72 1.737l-.073.073a2.025 2.025 0 0 0-.405 2.234v.098a2.025 2.025 0 0 0 1.853 1.227h.208a2.455 2.455 0 0 1 0 4.91h-.11a2.025 2.025 0 0 0-1.853 1.227z"/></g></g></svg>