<svg xmlns="http://www.w3.org/2000/svg" width="48" height="47" viewBox="0 0 48 47"><g><g><path fill="#a2c8fc" d="M47.115 16.248l-9.929-7.975a2.389 2.389 0 0 0-3.882 1.871V44.06a2.395 2.395 0 0 0 2.389 2.396h3.23a2.394 2.394 0 0 0 2.388-2.395V21.36a.845.845 0 0 1 .84-.847h3.47a2.4 2.4 0 0 0 1.494-4.265z"/></g><g><path fill="#a2c8fc" d="M28.592 7.744h-3.23a2.395 2.395 0 0 0-2.388 2.395v22.698a.845.845 0 0 1-.84.844h-3.47a2.4 2.4 0 0 0-1.494 4.265l9.929 7.975a2.389 2.389 0 0 0 3.883-1.865V10.138c-.001-1.32-1.07-2.39-2.39-2.394z"/></g><g><path fill="#151a6a" d="M35.627 19.358A17.71 17.71 0 0 0 24.299 2.765a.775.775 0 0 0-.564 1.443 16.254 16.254 0 0 1-3.91 31.271l.09-.09a.774.774 0 1 0-1.095-1.094l-1.548 1.548a.774.774 0 0 0 0 1.097l1.549 1.548a.774.774 0 1 0 1.094-1.095l-.316-.315c9.095-.925 16.018-8.579 16.028-17.72z"/></g><g><path fill="#151a6a" d="M11.907 34.508a16.254 16.254 0 0 1 3.906-31.273l-.09.09a.774.774 0 1 0 1.095 1.095l1.549-1.548a.774.774 0 0 0 0-1.097L16.818.227a.774.774 0 1 0-1.095 1.095l.316.315a17.807 17.807 0 0 0-4.695 34.312.775.775 0 1 0 .563-1.443z"/></g><g><path fill="#151a6a" d="M26.393 11.545c.287 2.293.028 4.62-.755 6.794a16.429 16.429 0 0 0-5.21-5.836c.507-1.348.833-2.757.97-4.19a11.364 11.364 0 0 1 4.995 3.232zm1.112 14.224zm-.998-5.482a16.05 16.05 0 0 0 1.549-6.427 11.625 11.625 0 0 1-.55 11.909 16.08 16.08 0 0 0-.999-5.482zm-14.211 9.29zm6.443-1.548a16.08 16.08 0 0 0 5.487 1.014 11.622 11.622 0 0 1-11.93.534 16.059 16.059 0 0 0 6.443-1.548zM6.773 22.935a16.198 16.198 0 0 0 4.191-.97 16.442 16.442 0 0 0 5.834 5.212c-2.173.782-4.5 1.04-6.792.754a11.37 11.37 0 0 1-3.233-4.995zm1.36-9.987c.014 2.688.703 5.33 2.004 7.682a14.655 14.655 0 0 1-3.741.79 11.545 11.545 0 0 1 1.736-8.472zm3.276-3.276a11.542 11.542 0 0 1 8.473-1.737 14.656 14.656 0 0 1-.791 3.741 16.054 16.054 0 0 0-7.682-2.004zm4.744 6.922l-5.373-5.366a14.53 14.53 0 0 1 7.706 1.89 14.702 14.702 0 0 1-2.334 3.479zm6.577 6.581l.002-.002.002.002zm-5.484-5.484a16.26 16.26 0 0 0 2.55-3.738 14.783 14.783 0 0 1 5.015 6.256 14.753 14.753 0 0 1-2.079 2.964zm5.477 7.663l2.138 2.138a14.64 14.64 0 0 1-4.271-.48 16.465 16.465 0 0 0 2.13-1.658zm-6.567-6.568l5.484 5.484c-.9.813-1.896 1.511-2.966 2.08a14.78 14.78 0 0 1-6.256-5.015 16.24 16.24 0 0 0 3.734-2.549zM9.69 12.32l5.37 5.371a14.69 14.69 0 0 1-3.48 2.334 14.535 14.535 0 0 1-1.89-7.705zm16.259 14.076l-2.127-2.126a16.434 16.434 0 0 0 1.648-2.138c.368 1.39.53 2.827.479 4.264zM8.512 10.051a13.126 13.126 0 0 0 .448 19.02c.074.12.182.218.31.28a13.13 13.13 0 0 0 17.807-.641l.015-.014c.01-.011.023-.02.034-.031.023-.024.042-.05.066-.072l.012-.014a13.124 13.124 0 0 0 .608-17.771.757.757 0 0 0-.283-.31 13.133 13.133 0 0 0-19.017-.447z"/></g></g></svg>