<svg xmlns="http://www.w3.org/2000/svg" width="49" height="47" viewBox="0 0 49 47"><g><g><g><path fill="#fca2a2" d="M15.446 40.728a.869.869 0 0 1 0-1.738h7.815a.869.869 0 1 1 0 1.738zm0-6.085h7.815a.869.869 0 1 1 0 1.737h-7.815a.869.869 0 0 1 0-1.737zm11.378-6.08H11.701a1.56 1.56 0 0 0-1.56 1.56v14.076a2.606 2.606 0 0 0 2.606 2.606h14.077a1.56 1.56 0 0 0 1.56-1.56V30.122a1.56 1.56 0 0 0-1.56-1.56z"/></g><g><path fill="#fca2a2" d="M35.246 16.922h7.819a.869.869 0 0 1 0 1.738h-7.819a.869.869 0 1 1 0-1.738zm11.56 9.902a1.56 1.56 0 0 0 1.56-1.56V11.187a2.606 2.606 0 0 0-2.607-2.606H31.683a1.56 1.56 0 0 0-1.56 1.56v15.123c0 .862.698 1.56 1.56 1.56z"/></g><g><path fill="#fca2a2" d="M15.446 16.922h3.042v-3.036a.869.869 0 0 1 1.737 0v3.042h3.043a.869.869 0 1 1 0 1.737h-3.043v3.043a.869.869 0 1 1-1.737 0v-3.043h-3.042a.869.869 0 0 1 0-1.737zm12.938 8.342V10.14a1.56 1.56 0 0 0-1.56-1.56H12.747a2.606 2.606 0 0 0-2.606 2.606v14.077c0 .862.699 1.56 1.56 1.56h15.123a1.56 1.56 0 0 0 1.56-1.56z"/></g><g><path fill="#fca2a2" d="M43.59 40.107a.87.87 0 0 1-1.231 1.231l-2.427-2.426-2.426 2.426a.869.869 0 0 1-1.229-1.228l2.426-2.426-2.423-2.424a.868.868 0 1 1 1.229-1.228l2.426 2.426 2.427-2.426a.868.868 0 1 1 1.228 1.228l-2.426 2.427zm-13.468 5.138c0 .862.699 1.56 1.56 1.56H45.76a2.606 2.606 0 0 0 2.606-2.606V30.122a1.56 1.56 0 0 0-1.56-1.56H31.683a1.56 1.56 0 0 0-1.56 1.56z"/></g></g><g><path fill="#6a1515" d="M36.664 37.444H24.963V15.602h12.481v21.062c0 .431-.349.78-.78.78zm-35.104-.78v-9.36h10.141v10.14h-9.36a.78.78 0 0 1-.78-.78zm0-21.062h10.141v10.14H1.561zm21.843 10.14H13.262v-10.14h10.14zm0 11.702H13.262v-10.14h10.14zM2.34 1.56h34.324c.431 0 .78.35.78.78v11.702H1.56V2.34c0-.43.35-.78.78-.78zm0-1.56A2.34 2.34 0 0 0 0 2.34v34.324a2.34 2.34 0 0 0 2.34 2.34h34.324a2.34 2.34 0 0 0 2.34-2.34V2.34A2.34 2.34 0 0 0 36.664 0z"/></g><g><path fill="#6a1515" d="M28.863 12.481h6.241a.78.78 0 0 0 0-1.56h-6.24a.78.78 0 0 0 0 1.56z"/></g></g></svg>