<svg xmlns="http://www.w3.org/2000/svg" width="51" height="55" viewBox="0 0 51 55"><g><g><path fill="#fff" d="M32.427 0v39.134c0 2.22-.425 4.285-1.275 6.193a15.613 15.613 0 0 1-3.51 4.995c-1.488 1.422-3.225 2.55-5.208 3.383a16.078 16.078 0 0 1-6.273 1.249c-2.27 0-4.377-.417-6.327-1.25-1.949-.832-3.65-1.96-5.102-3.382a16.028 16.028 0 0 1-3.456-4.995C.426 43.419 0 41.354 0 39.134V0h10.632V38.716c0 1.598.548 2.934 1.648 4.008 1.098 1.077 2.427 1.614 3.986 1.614 1.63 0 2.995-.537 4.095-1.614 1.098-1.074 1.647-2.41 1.647-4.008V0z"/></g><g><path fill="#fff" d="M38.128 48.58a6.21 6.21 0 1 1 12.419 0 6.21 6.21 0 0 1-12.419 0z"/></g></g></svg>